<svg width="1200" height="630" viewBox="0 0 1200 630" xmlns="http://www.w3.org/2000/svg">
  <defs>
    <linearGradient id="bg" x1="0" y1="0" x2="1" y2="1">
      <stop offset="0%" stop-color="#0F172A" />
      <stop offset="100%" stop-color="#334155" />
    </linearGradient>
    <linearGradient id="glow" x1="0" y1="0" x2="1" y2="1">
      <stop offset="0%" stop-color="rgba(34,211,238,0.55)" />
      <stop offset="100%" stop-color="rgba(34,211,238,0)" />
    </linearGradient>
  </defs>
  <rect width="1200" height="630" fill="url(#bg)" rx="48" />
  <circle cx="960" cy="120" r="180" fill="url(#glow)" />
  <circle cx="220" cy="520" r="210" fill="rgba(148,163,184,0.15)" />
  <g fill="#22D3EE">
    <path d="M320 420V210h120c70 0 110 36 110 88 0 45-30 72-74 81l118 118h-82l-110-112h-32v112h-50Zm170-170h-120v70h120c38 0 60-14 60-35 0-22-20-35-60-35Z"/>
    <path d="M700 210h52l110 120-110 120h-52l110-120-110-120Z"/>
  </g>
  <text x="120" y="180" fill="#E2E8F0" font-family="'Inter', 'Geist', sans-serif" font-size="80" font-weight="600">dsNEXT</text>
  <text x="120" y="250" fill="#94A3B8" font-family="'Inter', 'Geist', sans-serif" font-size="36" font-weight="500">Build once. Scale everywhere.</text>
  <text x="120" y="340" fill="#CBD5F5" font-family="'Inter', 'Geist', sans-serif" font-size="28" font-weight="400">The design-system boilerplate for production-grade Next.js teams.</text>
  <text x="120" y="400" fill="#CBD5F5" font-family="'Inter', 'Geist', sans-serif" font-size="22" font-weight="400">· Tailwind tokens tuned to dsNEXT palette</text>
  <text x="120" y="440" fill="#CBD5F5" font-family="'Inter', 'Geist', sans-serif" font-size="22" font-weight="400">· Observability integrated with OpenTelemetry</text>
  <text x="120" y="480" fill="#CBD5F5" font-family="'Inter', 'Geist', sans-serif" font-size="22" font-weight="400">· Typed feature flags, ready for scale</text>
</svg>
